<mxfile host="app.diagrams.net" modified="2023-10-20T10:45:53.555Z" agent="Mozilla/5.0 (Windows NT 10.0; Win64; x64) AppleWebKit/537.36 (KHTML, like Gecko) Chrome/118.0.0.0 Safari/537.36" etag="a9kKytj_CUNL1zuXlgfQ" version="22.0.5" type="device">
  <diagram id="C5RBs43oDa-KdzZeNtuy" name="Page-1">
    <mxGraphModel dx="1195" dy="658" grid="1" gridSize="10" guides="1" tooltips="1" connect="1" arrows="1" fold="1" page="1" pageScale="1" pageWidth="827" pageHeight="1169" math="0" shadow="0">
      <root>
        <mxCell id="WIyWlLk6GJQsqaUBKTNV-0" />
        <mxCell id="WIyWlLk6GJQsqaUBKTNV-1" parent="WIyWlLk6GJQsqaUBKTNV-0" />
        <mxCell id="lZtzUksJS31U4bqo1K4R-11" style="edgeStyle=orthogonalEdgeStyle;rounded=0;orthogonalLoop=1;jettySize=auto;html=1;exitX=0.5;exitY=1;exitDx=0;exitDy=0;entryX=0.5;entryY=0;entryDx=0;entryDy=0;" edge="1" parent="WIyWlLk6GJQsqaUBKTNV-1" source="lZtzUksJS31U4bqo1K4R-0" target="lZtzUksJS31U4bqo1K4R-1">
          <mxGeometry relative="1" as="geometry" />
        </mxCell>
        <mxCell id="lZtzUksJS31U4bqo1K4R-0" value="INICIO" style="ellipse;whiteSpace=wrap;html=1;" vertex="1" parent="WIyWlLk6GJQsqaUBKTNV-1">
          <mxGeometry x="320" y="40" width="80" height="40" as="geometry" />
        </mxCell>
        <mxCell id="lZtzUksJS31U4bqo1K4R-10" style="edgeStyle=orthogonalEdgeStyle;rounded=0;orthogonalLoop=1;jettySize=auto;html=1;exitX=0.5;exitY=1;exitDx=0;exitDy=0;entryX=0.5;entryY=0;entryDx=0;entryDy=0;" edge="1" parent="WIyWlLk6GJQsqaUBKTNV-1" source="lZtzUksJS31U4bqo1K4R-1" target="lZtzUksJS31U4bqo1K4R-2">
          <mxGeometry relative="1" as="geometry" />
        </mxCell>
        <mxCell id="lZtzUksJS31U4bqo1K4R-1" value="&quot;Introduzca su edad&quot;" style="rounded=1;whiteSpace=wrap;html=1;" vertex="1" parent="WIyWlLk6GJQsqaUBKTNV-1">
          <mxGeometry x="300" y="100" width="120" height="60" as="geometry" />
        </mxCell>
        <mxCell id="lZtzUksJS31U4bqo1K4R-6" style="edgeStyle=orthogonalEdgeStyle;rounded=0;orthogonalLoop=1;jettySize=auto;html=1;exitX=0;exitY=0.5;exitDx=0;exitDy=0;entryX=1;entryY=0;entryDx=0;entryDy=0;" edge="1" parent="WIyWlLk6GJQsqaUBKTNV-1" source="lZtzUksJS31U4bqo1K4R-2" target="lZtzUksJS31U4bqo1K4R-4">
          <mxGeometry relative="1" as="geometry" />
        </mxCell>
        <mxCell id="lZtzUksJS31U4bqo1K4R-24" style="edgeStyle=orthogonalEdgeStyle;rounded=0;orthogonalLoop=1;jettySize=auto;html=1;exitX=1;exitY=0.5;exitDx=0;exitDy=0;entryX=0;entryY=0.5;entryDx=0;entryDy=0;" edge="1" parent="WIyWlLk6GJQsqaUBKTNV-1" source="lZtzUksJS31U4bqo1K4R-2" target="lZtzUksJS31U4bqo1K4R-23">
          <mxGeometry relative="1" as="geometry" />
        </mxCell>
        <mxCell id="lZtzUksJS31U4bqo1K4R-2" value="¿Es mayor de 35?&lt;br&gt;(edad &amp;gt;= 35)" style="rhombus;whiteSpace=wrap;html=1;" vertex="1" parent="WIyWlLk6GJQsqaUBKTNV-1">
          <mxGeometry x="300" y="180" width="120" height="110" as="geometry" />
        </mxCell>
        <mxCell id="lZtzUksJS31U4bqo1K4R-7" style="edgeStyle=orthogonalEdgeStyle;rounded=0;orthogonalLoop=1;jettySize=auto;html=1;exitX=0;exitY=1;exitDx=0;exitDy=0;entryX=1;entryY=0;entryDx=0;entryDy=0;" edge="1" parent="WIyWlLk6GJQsqaUBKTNV-1" source="lZtzUksJS31U4bqo1K4R-4" target="lZtzUksJS31U4bqo1K4R-5">
          <mxGeometry relative="1" as="geometry" />
        </mxCell>
        <mxCell id="lZtzUksJS31U4bqo1K4R-18" style="edgeStyle=orthogonalEdgeStyle;rounded=0;orthogonalLoop=1;jettySize=auto;html=1;exitX=1;exitY=1;exitDx=0;exitDy=0;entryX=0;entryY=0.5;entryDx=0;entryDy=0;" edge="1" parent="WIyWlLk6GJQsqaUBKTNV-1" source="lZtzUksJS31U4bqo1K4R-4" target="lZtzUksJS31U4bqo1K4R-49">
          <mxGeometry relative="1" as="geometry">
            <Array as="points">
              <mxPoint x="250" y="310" />
              <mxPoint x="250" y="360" />
              <mxPoint x="260" y="360" />
              <mxPoint x="260" y="380" />
            </Array>
          </mxGeometry>
        </mxCell>
        <mxCell id="lZtzUksJS31U4bqo1K4R-4" value="¿Ha participado en otras maratones?" style="rhombus;whiteSpace=wrap;html=1;" vertex="1" parent="WIyWlLk6GJQsqaUBKTNV-1">
          <mxGeometry x="140" y="220" width="120" height="120" as="geometry" />
        </mxCell>
        <mxCell id="lZtzUksJS31U4bqo1K4R-13" style="edgeStyle=orthogonalEdgeStyle;rounded=0;orthogonalLoop=1;jettySize=auto;html=1;exitX=0.5;exitY=1;exitDx=0;exitDy=0;entryX=0.5;entryY=0;entryDx=0;entryDy=0;" edge="1" parent="WIyWlLk6GJQsqaUBKTNV-1" source="lZtzUksJS31U4bqo1K4R-5" target="lZtzUksJS31U4bqo1K4R-12">
          <mxGeometry relative="1" as="geometry" />
        </mxCell>
        <mxCell id="lZtzUksJS31U4bqo1K4R-17" style="edgeStyle=orthogonalEdgeStyle;rounded=0;orthogonalLoop=1;jettySize=auto;html=1;exitX=1;exitY=1;exitDx=0;exitDy=0;entryX=0.5;entryY=0;entryDx=0;entryDy=0;" edge="1" parent="WIyWlLk6GJQsqaUBKTNV-1" source="lZtzUksJS31U4bqo1K4R-5" target="lZtzUksJS31U4bqo1K4R-14">
          <mxGeometry relative="1" as="geometry">
            <mxPoint x="240" y="440" as="targetPoint" />
          </mxGeometry>
        </mxCell>
        <mxCell id="lZtzUksJS31U4bqo1K4R-5" value="&lt;div style=&quot;&quot;&gt;&lt;span style=&quot;font-size: 10px; background-color: initial;&quot;&gt;¿La ha terminado en un tiempo menor a 225 minutos?&lt;/span&gt;&lt;/div&gt;" style="rhombus;whiteSpace=wrap;html=1;align=center;" vertex="1" parent="WIyWlLk6GJQsqaUBKTNV-1">
          <mxGeometry x="10" y="330" width="150" height="135" as="geometry" />
        </mxCell>
        <mxCell id="lZtzUksJS31U4bqo1K4R-8" value="Sí" style="text;html=1;strokeColor=none;fillColor=none;align=center;verticalAlign=middle;whiteSpace=wrap;rounded=0;" vertex="1" parent="WIyWlLk6GJQsqaUBKTNV-1">
          <mxGeometry x="230" y="200" width="60" height="30" as="geometry" />
        </mxCell>
        <mxCell id="lZtzUksJS31U4bqo1K4R-9" value="Sí" style="text;html=1;strokeColor=none;fillColor=none;align=center;verticalAlign=middle;whiteSpace=wrap;rounded=0;" vertex="1" parent="WIyWlLk6GJQsqaUBKTNV-1">
          <mxGeometry x="110" y="320" width="60" height="30" as="geometry" />
        </mxCell>
        <mxCell id="lZtzUksJS31U4bqo1K4R-45" style="edgeStyle=orthogonalEdgeStyle;rounded=0;orthogonalLoop=1;jettySize=auto;html=1;exitX=0.5;exitY=1;exitDx=0;exitDy=0;entryX=0;entryY=1;entryDx=0;entryDy=0;" edge="1" parent="WIyWlLk6GJQsqaUBKTNV-1" source="lZtzUksJS31U4bqo1K4R-12" target="lZtzUksJS31U4bqo1K4R-44">
          <mxGeometry relative="1" as="geometry">
            <Array as="points">
              <mxPoint x="85" y="690" />
              <mxPoint x="348" y="690" />
            </Array>
          </mxGeometry>
        </mxCell>
        <mxCell id="lZtzUksJS31U4bqo1K4R-12" value="Persona seleccionada" style="rounded=1;whiteSpace=wrap;html=1;" vertex="1" parent="WIyWlLk6GJQsqaUBKTNV-1">
          <mxGeometry x="25" y="480" width="120" height="60" as="geometry" />
        </mxCell>
        <mxCell id="lZtzUksJS31U4bqo1K4R-46" style="edgeStyle=orthogonalEdgeStyle;rounded=0;orthogonalLoop=1;jettySize=auto;html=1;exitX=0.5;exitY=1;exitDx=0;exitDy=0;entryX=0;entryY=0.5;entryDx=0;entryDy=0;" edge="1" parent="WIyWlLk6GJQsqaUBKTNV-1" source="lZtzUksJS31U4bqo1K4R-14" target="lZtzUksJS31U4bqo1K4R-44">
          <mxGeometry relative="1" as="geometry" />
        </mxCell>
        <mxCell id="lZtzUksJS31U4bqo1K4R-14" value="Persona No seleccionada" style="rounded=1;whiteSpace=wrap;html=1;" vertex="1" parent="WIyWlLk6GJQsqaUBKTNV-1">
          <mxGeometry x="180" y="480" width="120" height="60" as="geometry" />
        </mxCell>
        <mxCell id="lZtzUksJS31U4bqo1K4R-20" value="No" style="text;html=1;strokeColor=none;fillColor=none;align=center;verticalAlign=middle;whiteSpace=wrap;rounded=0;" vertex="1" parent="WIyWlLk6GJQsqaUBKTNV-1">
          <mxGeometry x="240" y="320" width="60" height="30" as="geometry" />
        </mxCell>
        <mxCell id="lZtzUksJS31U4bqo1K4R-21" value="No" style="text;html=1;strokeColor=none;fillColor=none;align=center;verticalAlign=middle;whiteSpace=wrap;rounded=0;" vertex="1" parent="WIyWlLk6GJQsqaUBKTNV-1">
          <mxGeometry x="150" y="410" width="60" height="30" as="geometry" />
        </mxCell>
        <mxCell id="lZtzUksJS31U4bqo1K4R-22" value="Sí" style="text;html=1;strokeColor=none;fillColor=none;align=center;verticalAlign=middle;whiteSpace=wrap;rounded=0;" vertex="1" parent="WIyWlLk6GJQsqaUBKTNV-1">
          <mxGeometry x="40" y="450" width="60" height="30" as="geometry" />
        </mxCell>
        <mxCell id="lZtzUksJS31U4bqo1K4R-30" style="edgeStyle=orthogonalEdgeStyle;rounded=0;orthogonalLoop=1;jettySize=auto;html=1;exitX=1;exitY=1;exitDx=0;exitDy=0;entryX=0;entryY=0.5;entryDx=0;entryDy=0;" edge="1" parent="WIyWlLk6GJQsqaUBKTNV-1" source="lZtzUksJS31U4bqo1K4R-23" target="lZtzUksJS31U4bqo1K4R-28">
          <mxGeometry relative="1" as="geometry" />
        </mxCell>
        <mxCell id="lZtzUksJS31U4bqo1K4R-35" style="edgeStyle=orthogonalEdgeStyle;rounded=0;orthogonalLoop=1;jettySize=auto;html=1;exitX=0.5;exitY=1;exitDx=0;exitDy=0;entryX=0;entryY=0.5;entryDx=0;entryDy=0;" edge="1" parent="WIyWlLk6GJQsqaUBKTNV-1" source="lZtzUksJS31U4bqo1K4R-23" target="lZtzUksJS31U4bqo1K4R-36">
          <mxGeometry relative="1" as="geometry">
            <mxPoint x="539.8571428571429" y="400" as="targetPoint" />
          </mxGeometry>
        </mxCell>
        <mxCell id="lZtzUksJS31U4bqo1K4R-23" value="¿Es mayor de 18?" style="rhombus;whiteSpace=wrap;html=1;" vertex="1" parent="WIyWlLk6GJQsqaUBKTNV-1">
          <mxGeometry x="480" y="180" width="120" height="110" as="geometry" />
        </mxCell>
        <mxCell id="lZtzUksJS31U4bqo1K4R-25" value="No" style="text;html=1;strokeColor=none;fillColor=none;align=center;verticalAlign=middle;whiteSpace=wrap;rounded=0;" vertex="1" parent="WIyWlLk6GJQsqaUBKTNV-1">
          <mxGeometry x="410" y="200" width="60" height="30" as="geometry" />
        </mxCell>
        <mxCell id="lZtzUksJS31U4bqo1K4R-27" value="No" style="text;html=1;strokeColor=none;fillColor=none;align=center;verticalAlign=middle;whiteSpace=wrap;rounded=0;" vertex="1" parent="WIyWlLk6GJQsqaUBKTNV-1">
          <mxGeometry x="490" y="310" width="60" height="30" as="geometry" />
        </mxCell>
        <mxCell id="lZtzUksJS31U4bqo1K4R-31" style="edgeStyle=orthogonalEdgeStyle;rounded=0;orthogonalLoop=1;jettySize=auto;html=1;exitX=1;exitY=1;exitDx=0;exitDy=0;entryX=0;entryY=0.5;entryDx=0;entryDy=0;" edge="1" parent="WIyWlLk6GJQsqaUBKTNV-1" source="lZtzUksJS31U4bqo1K4R-28" target="lZtzUksJS31U4bqo1K4R-29">
          <mxGeometry relative="1" as="geometry" />
        </mxCell>
        <mxCell id="lZtzUksJS31U4bqo1K4R-37" style="edgeStyle=orthogonalEdgeStyle;rounded=0;orthogonalLoop=1;jettySize=auto;html=1;exitX=0;exitY=1;exitDx=0;exitDy=0;entryX=0;entryY=0;entryDx=0;entryDy=0;" edge="1" parent="WIyWlLk6GJQsqaUBKTNV-1" source="lZtzUksJS31U4bqo1K4R-28" target="lZtzUksJS31U4bqo1K4R-36">
          <mxGeometry relative="1" as="geometry" />
        </mxCell>
        <mxCell id="lZtzUksJS31U4bqo1K4R-28" value="¿Ha participado en otras maratones?" style="rhombus;whiteSpace=wrap;html=1;" vertex="1" parent="WIyWlLk6GJQsqaUBKTNV-1">
          <mxGeometry x="590" y="250" width="120" height="120" as="geometry" />
        </mxCell>
        <mxCell id="lZtzUksJS31U4bqo1K4R-38" style="edgeStyle=orthogonalEdgeStyle;rounded=0;orthogonalLoop=1;jettySize=auto;html=1;exitX=0;exitY=1;exitDx=0;exitDy=0;" edge="1" parent="WIyWlLk6GJQsqaUBKTNV-1" source="lZtzUksJS31U4bqo1K4R-29" target="lZtzUksJS31U4bqo1K4R-50">
          <mxGeometry relative="1" as="geometry" />
        </mxCell>
        <mxCell id="lZtzUksJS31U4bqo1K4R-43" style="edgeStyle=orthogonalEdgeStyle;rounded=0;orthogonalLoop=1;jettySize=auto;html=1;exitX=0.5;exitY=1;exitDx=0;exitDy=0;entryX=0.5;entryY=0;entryDx=0;entryDy=0;" edge="1" parent="WIyWlLk6GJQsqaUBKTNV-1" source="lZtzUksJS31U4bqo1K4R-29" target="lZtzUksJS31U4bqo1K4R-42">
          <mxGeometry relative="1" as="geometry" />
        </mxCell>
        <mxCell id="lZtzUksJS31U4bqo1K4R-29" value="&lt;div style=&quot;&quot;&gt;&lt;span style=&quot;font-size: 10px; background-color: initial;&quot;&gt;¿La ha terminado en un tiempo menor a 190 minutos?&lt;/span&gt;&lt;/div&gt;" style="rhombus;whiteSpace=wrap;html=1;align=center;" vertex="1" parent="WIyWlLk6GJQsqaUBKTNV-1">
          <mxGeometry x="690" y="340" width="150" height="135" as="geometry" />
        </mxCell>
        <mxCell id="lZtzUksJS31U4bqo1K4R-32" value="Sí" style="text;html=1;strokeColor=none;fillColor=none;align=center;verticalAlign=middle;whiteSpace=wrap;rounded=0;" vertex="1" parent="WIyWlLk6GJQsqaUBKTNV-1">
          <mxGeometry x="550" y="270" width="60" height="30" as="geometry" />
        </mxCell>
        <mxCell id="lZtzUksJS31U4bqo1K4R-33" value="Sí" style="text;html=1;strokeColor=none;fillColor=none;align=center;verticalAlign=middle;whiteSpace=wrap;rounded=0;" vertex="1" parent="WIyWlLk6GJQsqaUBKTNV-1">
          <mxGeometry x="660" y="340" width="60" height="30" as="geometry" />
        </mxCell>
        <mxCell id="lZtzUksJS31U4bqo1K4R-47" style="edgeStyle=orthogonalEdgeStyle;rounded=0;orthogonalLoop=1;jettySize=auto;html=1;exitX=0.5;exitY=1;exitDx=0;exitDy=0;entryX=1;entryY=0.5;entryDx=0;entryDy=0;" edge="1" parent="WIyWlLk6GJQsqaUBKTNV-1" source="lZtzUksJS31U4bqo1K4R-34" target="lZtzUksJS31U4bqo1K4R-44">
          <mxGeometry relative="1" as="geometry" />
        </mxCell>
        <mxCell id="lZtzUksJS31U4bqo1K4R-34" value="No puede participar" style="rounded=1;whiteSpace=wrap;html=1;" vertex="1" parent="WIyWlLk6GJQsqaUBKTNV-1">
          <mxGeometry x="420" y="410" width="120" height="60" as="geometry" />
        </mxCell>
        <mxCell id="lZtzUksJS31U4bqo1K4R-41" style="edgeStyle=orthogonalEdgeStyle;rounded=0;orthogonalLoop=1;jettySize=auto;html=1;exitX=1;exitY=0.5;exitDx=0;exitDy=0;entryX=0.5;entryY=0;entryDx=0;entryDy=0;" edge="1" parent="WIyWlLk6GJQsqaUBKTNV-1" source="lZtzUksJS31U4bqo1K4R-36" target="lZtzUksJS31U4bqo1K4R-34">
          <mxGeometry relative="1" as="geometry">
            <Array as="points">
              <mxPoint x="540" y="390" />
              <mxPoint x="480" y="390" />
            </Array>
          </mxGeometry>
        </mxCell>
        <mxCell id="lZtzUksJS31U4bqo1K4R-36" value="" style="ellipse;whiteSpace=wrap;html=1;aspect=fixed;direction=south;" vertex="1" parent="WIyWlLk6GJQsqaUBKTNV-1">
          <mxGeometry x="530" y="355" width="20" height="20" as="geometry" />
        </mxCell>
        <mxCell id="lZtzUksJS31U4bqo1K4R-39" value="No" style="text;html=1;strokeColor=none;fillColor=none;align=center;verticalAlign=middle;whiteSpace=wrap;rounded=0;" vertex="1" parent="WIyWlLk6GJQsqaUBKTNV-1">
          <mxGeometry x="560" y="340" width="60" height="30" as="geometry" />
        </mxCell>
        <mxCell id="lZtzUksJS31U4bqo1K4R-40" value="No" style="text;html=1;strokeColor=none;fillColor=none;align=center;verticalAlign=middle;whiteSpace=wrap;rounded=0;" vertex="1" parent="WIyWlLk6GJQsqaUBKTNV-1">
          <mxGeometry x="610" y="415" width="60" height="30" as="geometry" />
        </mxCell>
        <mxCell id="lZtzUksJS31U4bqo1K4R-48" style="edgeStyle=orthogonalEdgeStyle;rounded=0;orthogonalLoop=1;jettySize=auto;html=1;exitX=0.5;exitY=1;exitDx=0;exitDy=0;entryX=1;entryY=1;entryDx=0;entryDy=0;" edge="1" parent="WIyWlLk6GJQsqaUBKTNV-1" source="lZtzUksJS31U4bqo1K4R-42" target="lZtzUksJS31U4bqo1K4R-44">
          <mxGeometry relative="1" as="geometry">
            <Array as="points">
              <mxPoint x="765" y="690" />
              <mxPoint x="432" y="690" />
            </Array>
          </mxGeometry>
        </mxCell>
        <mxCell id="lZtzUksJS31U4bqo1K4R-42" value="Puede participar" style="rounded=1;whiteSpace=wrap;html=1;" vertex="1" parent="WIyWlLk6GJQsqaUBKTNV-1">
          <mxGeometry x="705" y="490" width="120" height="60" as="geometry" />
        </mxCell>
        <mxCell id="lZtzUksJS31U4bqo1K4R-44" value="&lt;font size=&quot;1&quot;&gt;FIN&lt;/font&gt;" style="ellipse;whiteSpace=wrap;html=1;" vertex="1" parent="WIyWlLk6GJQsqaUBKTNV-1">
          <mxGeometry x="330" y="590" width="120" height="80" as="geometry" />
        </mxCell>
        <mxCell id="lZtzUksJS31U4bqo1K4R-49" value="No puede participar" style="rounded=1;whiteSpace=wrap;html=1;" vertex="1" parent="WIyWlLk6GJQsqaUBKTNV-1">
          <mxGeometry x="280" y="350" width="120" height="60" as="geometry" />
        </mxCell>
        <mxCell id="lZtzUksJS31U4bqo1K4R-50" value="Persona No seleccionada" style="rounded=1;whiteSpace=wrap;html=1;" vertex="1" parent="WIyWlLk6GJQsqaUBKTNV-1">
          <mxGeometry x="550" y="490" width="120" height="60" as="geometry" />
        </mxCell>
      </root>
    </mxGraphModel>
  </diagram>
</mxfile>
